<?xml version="1.0" encoding="UTF-8"?>
<svg version="1.1" xmlns="http://www.w3.org/2000/svg" width="1172" height="1246">
<path d="M0 0 C386.76 0 773.52 0 1172 0 C1172 411.18 1172 822.36 1172 1246 C785.24 1246 398.48 1246 0 1246 C0 834.82 0 423.64 0 0 Z " fill="#FEFEFE" transform="translate(0,0)"/>
<path d="M0 0 C3.48212608 1.35822891 6.90006766 2.83325083 10.31176758 4.35913086 C40.34668956 17.73282583 71.28337366 25.93029185 104 29 C102.11671102 37.66277714 99.85959951 46.11173478 97.1875 54.5625 C96.47600333 56.84357566 95.7650715 59.12482758 95.0546875 61.40625 C94.70631836 62.52128906 94.35794922 63.63632812 93.99902344 64.78515625 C92.57457434 69.36901395 91.18802609 73.96376054 89.8125 78.5625 C89.49285278 79.62803101 89.49285278 79.62803101 89.16674805 80.71508789 C88.0632371 84.40441929 86.9723247 88.09622938 85.90795898 91.79711914 C83.24742553 101.02103636 80.34137724 110.12212237 77.17919922 119.1857605 C75.86955084 122.94103065 74.57383328 126.70110807 73.27734375 130.4609375 C73.00936981 131.23737106 72.74139587 132.01380463 72.46530151 132.81376648 C69.41532965 141.66777229 66.4534557 150.5509212 63.5 159.4375 C63.1263179 160.5614769 63.1263179 160.5614769 62.74508667 161.7081604 C60.79425263 167.57733563 58.84684078 173.44764555 56.89916992 179.31787109 C54.74134561 185.80851504 52.54858248 192.28589738 50.3125 198.75 C49.94656738 199.80856201 49.58063477 200.86712402 49.20361328 201.95776367 C46.46133433 209.85978584 43.67704027 217.74649721 40.87890625 225.62890625 C40.51124649 226.66496002 40.14358673 227.70101379 39.76478577 228.76846313 C37.91442873 233.9812 36.06137609 239.19295714 34.2043457 244.40332031 C30.487761 254.85098721 26.83593699 265.31135954 23.41415405 275.85993958 C21.76193521 280.90558736 19.91161306 285.83052973 17.91116333 290.74845886 C16.82740397 293.4264955 15.82647153 296.12823819 14.8515625 298.84765625 C14.48925537 299.85602539 14.12694824 300.86439453 13.75366211 301.90332031 C13.38120361 302.94584961 13.00874512 303.98837891 12.625 305.0625 C12.22998291 306.16303711 11.83496582 307.26357422 11.42797852 308.39746094 C9.47688584 313.8406316 7.54327051 319.28937718 5.63671875 324.74829102 C3.24768046 331.58758044 0.72953399 338.36470681 -1.875 345.125 C-4.72071208 352.51787901 -7.41861624 359.94826114 -10 367.4375 C-15.77458482 384.18533735 -21.90200458 400.78278217 -28.21875 417.33325195 C-33.8212815 432.05371182 -39.21487462 446.85182389 -44.63037109 461.6418457 C-48.17929418 471.33269536 -51.74001694 481.0178827 -55.37573242 490.67651367 C-57.44060084 496.16489598 -59.48497792 501.66091362 -61.53125 507.15625 C-61.93405685 508.23782883 -62.33686371 509.31940765 -62.75187683 510.4337616 C-64.00139499 513.78912088 -65.25072789 517.14454909 -66.5 520.5 C-72.54482657 536.73594945 -78.59974942 552.96777242 -84.70300293 569.18185425 C-85.98005927 572.575277 -87.25599478 575.96912061 -88.53173828 579.36303711 C-89.17665622 581.07777731 -89.82216303 582.79229615 -90.46826172 584.5065918 C-94.09345478 594.12701434 -97.6743644 603.75622507 -101.03967285 613.47117615 C-102.7178559 618.29625387 -104.6233897 622.98606457 -106.625 627.68359375 C-108.28921948 631.69757767 -109.83604536 635.74916202 -111.375 639.8125 C-111.69549316 640.65449951 -112.01598633 641.49649902 -112.34619141 642.36401367 C-114.16275511 647.14048811 -115.97110685 651.91991202 -117.76464844 656.70507812 C-119.41307695 661.10199921 -121.07289225 665.49450878 -122.73809814 669.88510132 C-123.41062962 671.66455738 -124.07923643 673.44550188 -124.74383545 675.22793579 C-125.68901035 677.76133186 -126.64772657 680.28922545 -127.609375 682.81640625 C-127.8914682 683.58225037 -128.1735614 684.34809448 -128.46420288 685.137146 C-130.02567758 689.19607495 -131.40859882 692.31175399 -135 695 C-138.125 694.9375 -138.125 694.9375 -141 694 C-143.67927341 689.98108988 -143.15601248 687.75838077 -143 683 C-143.78375 683.825 -144.5675 684.65 -145.375 685.5 C-148 688 -148 688 -150 688 C-150 688.66 -150 689.32 -150 690 C-163.61586599 696.807933 -185.06016562 693.85119609 -199.3984375 690.7265625 C-203.87899126 689.82267638 -208.28517538 689.52264734 -212.83984375 689.24609375 C-217.26077728 688.90181833 -221.59886796 688.18836706 -225.97265625 687.47265625 C-228.70956057 687.04534603 -231.43207877 686.71524646 -234.1875 686.4375 C-238 686 -238 686 -240 685 C-239.19140353 687.813677 -238.37832997 690.62592069 -237.5625 693.4375 C-237.33240234 694.23994141 -237.10230469 695.04238281 -236.86523438 695.86914062 C-236.01294138 699.74053247 -236.01294138 699.74053247 -234 703 C-233.68076508 705.0572917 -233.48838648 707.11613521 -233.28125 709.1875 C-233.18001957 711.0167533 -233.18001957 711.0167533 -232 712 C-231.60333773 714.18019479 -231.25684763 716.3696463 -230.9375 718.5625 C-230.76089844 719.76003906 -230.58429688 720.95757813 -230.40234375 722.19140625 C-230.26957031 723.11824219 -230.13679688 724.04507813 -230 725 C-229.03320312 724.93039062 -228.06640625 724.86078125 -227.0703125 724.7890625 C-217.91287305 724.40825809 -212.52451662 725.598472 -205 731 C-203.70179441 731.65417391 -202.3893707 732.28111836 -201.0625 732.875 C-195.64490524 735.51148862 -190.48587553 738.98415187 -186 743 C-186 743.99 -186 744.98 -186 746 C-185.34 746 -184.68 746 -184 746 C-182.16179413 751.5146176 -182.16065682 757.62092797 -184.3125 763.0625 C-186 766 -186 766 -189 767 C-189 767.66 -189 768.32 -189 769 C-194.09065823 771.05412525 -198.51729324 772.32864815 -204 773 C-204.33 773.33 -204.66 773.66 -205 774 C-211.67465011 774.94198691 -218.26512121 775.21279072 -225 775.25 C-226.39992188 775.2809375 -226.39992188 775.2809375 -227.828125 775.3125 C-234.38957493 775.34915614 -241.2201348 774.88430519 -246.625 770.76000977 C-249.60169826 767.62633718 -250.80320544 764.40755687 -251.0625 760.12109375 C-250.80807395 751.48650957 -247.34536589 741.42244555 -241.23828125 735.20703125 C-240.68527344 734.70558594 -240.13226563 734.20414063 -239.5625 733.6875 C-237.34069156 731.27957148 -237.01120761 730.13890646 -236.7421875 726.8046875 C-237.17208903 718.56777409 -238.69759496 710.52157823 -240.37890625 702.4609375 C-240.90498144 699.5294745 -241.13053028 696.96246974 -241 694 C-241.66 694 -242.32 694 -243 694 C-243.99 691.03 -244.98 688.06 -246 685 C-247.08539063 684.87882812 -248.17078125 684.75765625 -249.2890625 684.6328125 C-250.73441404 684.46387531 -252.17972442 684.29458575 -253.625 684.125 C-254.69427734 684.00705078 -254.69427734 684.00705078 -255.78515625 683.88671875 C-260.10648683 683.3713307 -263.87266533 682.4323655 -268 681 C-270.19738356 680.4708148 -272.40352756 679.99716933 -274.61328125 679.52246094 C-294.00112166 675.27839604 -294.00112166 675.27839604 -302.71484375 670.96484375 C-306.44707289 669.38901367 -310.3607112 668.50116117 -314.27783203 667.49536133 C-325.07801328 664.71226886 -334.97225134 660.86783916 -345 656 C-346.50046875 655.2884375 -346.50046875 655.2884375 -348.03125 654.5625 C-358.19989968 649.63873279 -367.66051429 643.64364932 -377 637.30859375 C-378.91919392 636.05287116 -380.86779862 634.92064243 -382.875 633.8125 C-385.4910853 632.29517053 -386.92841709 631.07158291 -389 629 C-390.3921875 628.319375 -390.3921875 628.319375 -391.8125 627.625 C-395.35120945 625.82095204 -397.95899768 623.54451215 -401 621 C-402.23423338 620.24445252 -403.48461059 619.51462083 -404.75 618.8125 C-408 617 -408 617 -410 615 C-411.99235825 614.97636205 -411.99235825 614.97636205 -414 616 C-415.83995993 618.07045363 -415.83995993 618.07045363 -417.5625 620.625 C-421.81796658 626.19230214 -426.70322936 629.92790835 -433 633 C-433.99 633 -434.98 633 -436 633 C-436 633.66 -436 634.32 -436 635 C-450.27655338 637.99347087 -464.41227322 640.37604118 -479 641 C-478.97679687 641.72445312 -478.95359375 642.44890625 -478.9296875 643.1953125 C-478.70041305 655.47787238 -478.70041305 655.47787238 -482.9375 660.125 C-483.9584375 661.053125 -483.9584375 661.053125 -485 662 C-485.53625 662.7425 -486.0725 663.485 -486.625 664.25 C-487.305625 665.11625 -487.305625 665.11625 -488 666 C-488.66 666 -489.32 666 -490 666 C-490.33 666.99 -490.66 667.98 -491 669 C-492.55859375 670.60546875 -492.55859375 670.60546875 -494.4375 672.1875 C-495.05496094 672.71730469 -495.67242187 673.24710938 -496.30859375 673.79296875 C-498 675 -498 675 -500 675 C-500.33 675.99 -500.66 676.98 -501 678 C-506.46511628 683 -506.46511628 683 -509 683 C-509.33 683.99 -509.66 684.98 -510 686 C-512.0625 686.6875 -512.0625 686.6875 -514 687 C-514 687.66 -514 688.32 -514 689 C-515.65 689.33 -517.3 689.66 -519 690 C-519 690.66 -519 691.32 -519 692 C-521.2825616 693.43716841 -522.71743071 694 -525.4375 694 C-529.16052621 692.54711172 -530.72659344 690.22065929 -533 687 C-536.551236 675.96419698 -533.08864204 660.08208979 -527.94091797 649.90649414 C-526.62248903 647.2350848 -526.64280092 644.83811911 -526.5 641.875 C-526.14125974 636.10254301 -525.30856702 630.62810866 -524 625 C-524.66 625 -525.32 625 -526 625 C-525.505 622.525 -525.505 622.525 -525 620 C-517.24818667 617.11641884 -508.98002398 616.22526819 -501.15234375 619.390625 C-495.27180598 622.11250435 -490.32665064 625.09437622 -486 630 C-485.505 631.485 -485.505 631.485 -485 633 C-466.6174204 633.53032746 -466.6174204 633.53032746 -448.41796875 631.4375 C-445.8961603 630.98121156 -443.55707346 630.92654726 -441 631 C-441 630.34 -441 629.68 -441 629 C-438.69 628.67 -436.38 628.34 -434 628 C-434 627.34 -434 626.68 -434 626 C-432.49377587 625.06530755 -430.94256377 624.20271066 -429.375 623.375 C-424.33247776 620.45979183 -420.72721399 617.19944457 -418 612 C-418 611.01 -418 610.02 -418 609 C-420.05123833 607.22773247 -420.05123833 607.22773247 -422.75 605.5 C-428.37546383 601.57525779 -433.28822025 597.21866014 -438.2734375 592.515625 C-440.9298071 590.00222187 -440.9298071 590.00222187 -443.6484375 587.8984375 C-445.78819271 586.17099392 -447.48393158 584.4710913 -449.25 582.375 C-452.73195465 578.28981198 -456.34157418 574.33665311 -459.984375 570.39453125 C-461.97116886 568.03425095 -463.42978448 565.64845752 -465 563 C-467.0704233 560.35951751 -469.20938488 557.78619871 -471.35546875 555.20703125 C-473 553 -473 553 -473 551 C-473.66 551 -474.32 551 -475 551 C-476.00508801 549.21118264 -477.00392736 547.41885304 -478 545.625 C-478.556875 544.62726562 -479.11375 543.62953125 -479.6875 542.6015625 C-481 540 -481 540 -481 538 C-481.66 538 -482.32 538 -483 538 C-487.97883771 530.87820895 -496 518.88862513 -496 510 C-496.66 510 -497.32 510 -498 510 C-498 508.68 -498 507.36 -498 506 C-498.66 506 -499.32 506 -500 506 C-500.33 503.36 -500.66 500.72 -501 498 C-501.66 498 -502.32 498 -503 498 C-503 496.68 -503 495.36 -503 494 C-503.66 494 -504.32 494 -505 494 C-505.19335938 493.14535156 -505.38671875 492.29070312 -505.5859375 491.41015625 C-505.84632813 490.30542969 -506.10671875 489.20070313 -506.375 488.0625 C-506.63023437 486.96035156 -506.88546875 485.85820313 -507.1484375 484.72265625 C-507.42945313 483.82417969 -507.71046875 482.92570312 -508 482 C-508.66 481.67 -509.32 481.34 -510 481 C-510.96575366 478.3573468 -511.82456387 475.75466455 -512.625 473.0625 C-512.85445312 472.32064453 -513.08390625 471.57878906 -513.3203125 470.81445312 C-515 465.30047898 -515 465.30047898 -515 463 C-515.66 463 -516.32 463 -517 463 C-517.10957031 462.35933594 -517.21914063 461.71867187 -517.33203125 461.05859375 C-518.32370728 455.64871882 -519.7132525 451.03084451 -522 446 C-524.79701175 439.2567093 -525.74076889 432.46174387 -526.5703125 425.2578125 C-526.8957288 421.99704555 -526.8957288 421.99704555 -528 419 C-531.75671792 390.01297902 -527.76916206 362.60204348 -519 335 C-518.44266993 333.23568921 -517.88538153 331.47136526 -517.328125 329.70703125 C-515.82751984 324.96369251 -514.31381777 320.22465794 -512.79443359 315.48730469 C-512.12197774 313.38190203 -511.45890253 311.2739728 -510.80078125 309.1640625 C-509.03527746 303.62331147 -506.98689342 298.9781557 -504 294 C-503.71253906 293.12214844 -503.42507813 292.24429687 -503.12890625 291.33984375 C-501.73434567 287.21406765 -499.9322555 283.36570192 -498.0625 279.4375 C-497.71509766 278.69564453 -497.36769531 277.95378906 -497.00976562 277.18945312 C-495.18407916 273.32834973 -493.27633045 269.62086629 -491 266 C-487.92534565 260.95308838 -484.9164929 255.89777966 -482.125 250.6875 C-477.02103095 241.26376548 -471.39142662 232.26427756 -464.984375 223.671875 C-463.67611877 221.91036464 -462.39395539 220.12912918 -461.140625 218.328125 C-454.38998521 208.67638382 -446.34727295 200.27518942 -438 192 C-437.34 191.34 -436.68 190.68 -436 190 C-436.24582046 186.05839607 -438.64214239 183.89778109 -441.1875 181.0625 C-446.7822874 174.40416675 -452.65289277 166.0735354 -452 157 C-452.66 157 -453.32 157 -454 157 C-454.18175781 156.38253906 -454.36351562 155.76507812 -454.55078125 155.12890625 C-455.80445505 150.90498992 -457.08809734 146.71489934 -458.5625 142.5625 C-463.68385728 127.27886832 -463.20216137 110.68083278 -463.55224609 94.74707031 C-463.60422522 92.43805248 -463.66130358 90.12919979 -463.71875 87.8203125 C-463.73232544 87.12334259 -463.74590088 86.42637268 -463.7598877 85.70828247 C-463.86066411 81.72038987 -464.24746114 77.91731516 -465 74 C-465.99 74.66 -466.98 75.32 -468 76 C-473.22714688 76 -475.93378428 73.77261861 -479.6796875 70.47265625 C-481 69 -481 69 -481 67 C-481.99 66.67 -482.98 66.34 -484 66 C-484 65.34 -484 64.68 -484 64 C-484.99 63.67 -485.98 63.34 -487 63 C-487.66666667 61.33333333 -488.33333333 59.66666667 -489 58 C-489.99 57.67 -490.98 57.34 -492 57 C-496 52.54285714 -496 52.54285714 -496 50 C-496.556875 49.79375 -497.11375 49.5875 -497.6875 49.375 C-500.97012371 47.42316968 -502.70673246 45.05769006 -505 42 C-505 41.34 -505 40.68 -505 40 C-505.66 40 -506.32 40 -507 40 C-508.42944945 37.64561267 -509.08661261 36.51967567 -508.625 33.75 C-508.41875 33.1725 -508.2125 32.595 -508 32 C-504.04 31.505 -504.04 31.505 -500 31 C-496 36.75 -496 36.75 -496 39 C-495.40445313 39.28230469 -494.80890625 39.56460938 -494.1953125 39.85546875 C-485.74106028 44.2631127 -480.5119564 52.52503297 -475 60 C-474.67 58.35 -474.34 56.7 -474 55 C-474.66 55 -475.32 55 -476 55 C-476 52.36 -476 49.72 -476 47 C-476.66 47 -477.32 47 -478 47 C-478 45.02 -478 43.04 -478 41 C-478.66 41 -479.32 41 -480 41 C-480.50512244 39.39743892 -481.00391627 37.79288208 -481.5 36.1875 C-481.7784375 35.29417969 -482.056875 34.40085937 -482.34375 33.48046875 C-483 31 -483 31 -483 28 C-483.66 28 -484.32 28 -485 28 C-485 26.68 -485 25.36 -485 24 C-485.66 24 -486.32 24 -487 24 C-486.125 19.125 -486.125 19.125 -485 18 C-483.33382885 17.95936168 -481.66611905 17.957279 -480 18 C-479.505 19.98 -479.505 19.98 -479 22 C-478.34 22 -477.68 22 -477 22 C-476.60167969 23.12148438 -476.60167969 23.12148438 -476.1953125 24.265625 C-475.84210938 25.25046875 -475.48890625 26.2353125 -475.125 27.25 C-474.77695312 28.22453125 -474.42890625 29.1990625 -474.0703125 30.203125 C-473.09352019 32.93297895 -473.09352019 32.93297895 -471.8671875 35.109375 C-471 37 -471 37 -471 41 C-470.34 41 -469.68 41 -469 41 C-469 42.65 -469 44.3 -469 46 C-468.34 46 -467.68 46 -467 46 C-467.03552979 44.90010742 -467.07105957 43.80021484 -467.10766602 42.66699219 C-467.23814354 38.5820311 -467.36126512 34.49687556 -467.48217773 30.41162109 C-467.53551165 28.64430686 -467.5908341 26.87705145 -467.64819336 25.10986328 C-467.730345 22.56816288 -467.80531788 20.02633597 -467.87890625 17.484375 C-467.90594131 16.69569031 -467.93297638 15.90700562 -467.96083069 15.09442139 C-468.05761846 11.52818834 -467.97167997 8.42833933 -467 5 C-464.69 5 -462.38 5 -460 5 C-459.93941406 6.28777344 -459.87882812 7.57554687 -459.81640625 8.90234375 C-459.73201753 10.58074159 -459.6473687 12.25912636 -459.5625 13.9375 C-459.52318359 14.78763672 -459.48386719 15.63777344 -459.44335938 16.51367188 C-459.40146484 17.32255859 -459.35957031 18.13144531 -459.31640625 18.96484375 C-459.27974854 19.7137085 -459.24309082 20.46257324 -459.20532227 21.23413086 C-459.18228937 23.02461326 -459.18228937 23.02461326 -458 24 C-457.70151 25.84846443 -457.46107178 27.70637897 -457.24609375 29.56640625 C-457.11396484 30.69111328 -456.98183594 31.81582031 -456.84570312 32.97460938 C-456.71099609 34.15861328 -456.57628906 35.34261719 -456.4375 36.5625 C-456.29892578 37.75037109 -456.16035156 38.93824219 -456.01757812 40.16210938 C-455.67452352 43.10764722 -455.33551453 46.05359533 -455 49 C-454.20764675 45.20847648 -453.41624544 41.41675484 -452.625 37.625 C-452.40328125 36.56410156 -452.1815625 35.50320313 -451.953125 34.41015625 C-451.73398437 33.35957031 -451.51484375 32.30898438 -451.2890625 31.2265625 C-451.0715332 30.18532227 -450.85400391 29.14408203 -450.62988281 28.07128906 C-449.86360771 24.33495541 -449.1450794 20.59018274 -448.44287109 16.84130859 C-448 15 -448 15 -447 14 C-445.33382885 13.95936168 -443.66611905 13.957279 -442 14 C-441.40615963 30.34160733 -443.37414548 44.94123973 -450 60 C-446.535 59.505 -446.535 59.505 -443 59 C-443 58.34 -443 57.68 -443 57 C-431.47835991 53.55580866 -431.47835991 53.55580866 -426 54 C-426 54.66 -426 55.32 -426 56 C-432.625 59 -432.625 59 -436 59 C-436 59.66 -436 60.32 -436 61 C-437.95585325 62.00484204 -439.91476237 63.00373805 -441.875 64 C-442.96554687 64.556875 -444.05609375 65.11375 -445.1796875 65.6875 C-448 67 -448 67 -450 67 C-450 67.66 -450 68.32 -450 69 C-450.61875 69.103125 -451.2375 69.20625 -451.875 69.3125 C-454.36526484 69.87525373 -454.36526484 69.87525373 -456 73 C-456.25651936 75.88000235 -456.25651936 75.88000235 -456.14453125 79.16796875 C-456.12600098 80.42270996 -456.1074707 81.67745117 -456.08837891 82.97021484 C-456.07373596 83.63180603 -456.05909302 84.29339722 -456.04400635 84.97503662 C-456.00063147 86.97094255 -455.97358349 88.9671817 -455.94677734 90.96337891 C-455.88975435 95.08060845 -455.7973916 99.19636074 -455.6875 103.3125 C-455.6683252 104.03412323 -455.64915039 104.75574646 -455.62939453 105.49923706 C-455.35654756 115.04478315 -454.75023545 124.30516575 -452.71875 133.66015625 C-451.90572436 137.43807431 -451.43723131 141.16161356 -451 145 C-450.34 145 -449.68 145 -449 145 C-448.49307308 146.5811292 -447.99473557 148.16501383 -447.5 149.75 C-447.2215625 150.63171875 -446.943125 151.5134375 -446.65625 152.421875 C-446 155 -446 155 -446 159 C-445.34 159 -444.68 159 -444 159 C-443.62875 160.134375 -443.2575 161.26875 -442.875 162.4375 C-441.29846282 166.69188742 -439.04027521 170.15259404 -436.40234375 173.82421875 C-434.91250241 176.13575531 -433.94332879 178.42277158 -433 181 C-432.34 181 -431.68 181 -431 181 C-430.67 181.66 -430.34 182.32 -430 183 C-425.72809561 182.09300774 -422.41725495 179.97067075 -418.75 177.6875 C-404.52192376 169 -404.52192376 169 -400 169 C-400 168.34 -400 167.68 -400 167 C-398.66195312 166.49339844 -398.66195312 166.49339844 -397.296875 165.9765625 C-396.12640625 165.53054688 -394.9559375 165.08453125 -393.75 164.625 C-392.58984375 164.18414063 -391.4296875 163.74328125 -390.234375 163.2890625 C-387.12457912 162.1126581 -387.12457912 162.1126581 -384.765625 160.8359375 C-383 160 -383 160 -380 160 C-380 159.34 -380 158.68 -380 158 C-373.5 155 -373.5 155 -369 155 C-369 154.34 -369 153.68 -369 153 C-366.69 152.67 -364.38 152.34 -362 152 C-361.67 151.01 -361.34 150.02 -361 149 C-359.15234375 148.26953125 -359.15234375 148.26953125 -356.9375 147.8125 C-356.20402344 147.65394531 -355.47054687 147.49539063 -354.71484375 147.33203125 C-354.14894531 147.22246094 -353.58304688 147.11289062 -353 147 C-353.33 145.02 -353.66 143.04 -354 141 C-354.66 141 -355.32 141 -356 141 C-357.4606285 138.35261084 -358 137.10551666 -358 134 C-358.66 134 -359.32 134 -360 134 C-360 133.01 -360 132.02 -360 131 C-360.66 131 -361.32 131 -362 131 C-363.04257511 127.34403663 -364.03480914 123.67714177 -365 120 C-365.21269531 119.20980469 -365.42539062 118.41960937 -365.64453125 117.60546875 C-369.52277496 101.22756184 -366.5502423 85.62234413 -358.77734375 70.828125 C-355.75639217 66.02116029 -351.99454908 62.00907472 -348 58 C-347.29101562 57.2471875 -346.58203125 56.494375 -345.8515625 55.71875 C-344 54 -344 54 -342 54 C-342 53.34 -342 52.68 -342 52 C-340.39967863 51.15930585 -338.79458829 50.32768495 -337.1875 49.5 C-336.29417969 49.0359375 -335.40085937 48.571875 -334.48046875 48.09375 C-332 47 -332 47 -329 47 C-329 46.34 -329 45.68 -329 45 C-327.68 45 -326.36 45 -325 45 C-325 44.34 -325 43.68 -325 43 C-323.865625 42.855625 -322.73125 42.71125 -321.5625 42.5625 C-318.19222799 42.38828522 -318.19222799 42.38828522 -317 41 C-312.63186792 40.71629924 -308.2512326 40.76808361 -303.875 40.75 C-302.65039062 40.729375 -301.42578125 40.70875 -300.1640625 40.6875 C-293.57494736 40.65897569 -288.8196739 40.88609656 -283 44 C-281.46279297 44.49113281 -281.46279297 44.49113281 -279.89453125 44.9921875 C-268.03281992 49.12217606 -256.85248813 58.93764988 -251 70 C-251 70.66 -251 71.32 -251 72 C-250.34 72 -249.68 72 -249 72 C-248.67 73.98 -248.34 75.96 -248 78 C-247.34 78 -246.68 78 -246 78 C-240.53509362 106.35283542 -240.53509362 106.35283542 -243 120 C-242.35562988 119.90912109 -241.71125977 119.81824219 -241.04736328 119.72460938 C-238.0741765 119.3093747 -235.09964653 118.90463942 -232.125 118.5 C-231.11179687 118.35691406 -230.09859375 118.21382812 -229.0546875 118.06640625 C-222.65796077 117.20530842 -216.45299926 116.80678572 -210 117 C-209.87882812 116.18015625 -209.75765625 115.3603125 -209.6328125 114.515625 C-209.46523438 113.43796875 -209.29765625 112.3603125 -209.125 111.25 C-208.88136719 109.64898438 -208.88136719 109.64898438 -208.6328125 108.015625 C-208.06283555 105.29943853 -207.47260445 103.33435076 -206 101 C-205.34 100.67 -204.68 100.34 -204 100 C-203.01575675 98.32093872 -203.01575675 98.32093872 -202.125 96.3125 C-199.04501302 89.94870337 -195.11211962 83.93684694 -190 79 C-189.34 79 -188.68 79 -188 79 C-188 78.34 -188 77.68 -188 77 C-186.02 76.34 -184.04 75.68 -182 75 C-182 74.34 -182 73.68 -182 73 C-167.66067902 66.34320574 -155.7230322 64.66821269 -140 65 C-140 65.66 -140 66.32 -140 67 C-139.11957031 66.95617187 -138.23914063 66.91234375 -137.33203125 66.8671875 C-126.02081607 67.31804485 -115.23368514 76.45957302 -107.53125 84.0703125 C-105.92971616 86.08857198 -105.40305508 87.48090578 -105 90 C-104.34 90 -103.68 90 -103 90 C-97.80549898 101.34721096 -95.82533172 110.69137338 -95.875 123.125 C-95.87113281 124.10082031 -95.86726563 125.07664062 -95.86328125 126.08203125 C-95.86521484 127.49935547 -95.86521484 127.49935547 -95.8671875 128.9453125 C-95.86831543 129.79625488 -95.86944336 130.64719727 -95.87060547 131.52392578 C-96.00518539 134.09922685 -96.43426668 136.48706542 -97 139 C-95.02 139.66 -93.04 140.32 -91 141 C-91 141.66 -91 142.32 -91 143 C-90.05125 143.20625 -89.1025 143.4125 -88.125 143.625 C-83.867304 144.83904183 -80.42107425 147.01517326 -76.69140625 149.35546875 C-73.91275889 151.05330697 -71.0749929 152.55851649 -68.1875 154.0625 C-64.0182756 156.29706315 -61.1688318 158.53409022 -58 162 C-57.01 162.33 -56.02 162.66 -55 163 C-53 166 -53 166 -53 169 C-52.34 169 -51.68 169 -51 169 C-51 170.32 -51 171.64 -51 173 C-50.34 173 -49.68 173 -49 173 C-48.86722656 174.07121094 -48.73445313 175.14242187 -48.59765625 176.24609375 C-48.4194944 177.64325769 -48.24109681 179.04039159 -48.0625 180.4375 C-47.97548828 181.14455078 -47.88847656 181.85160156 -47.79882812 182.58007812 C-47.61783809 186.08817968 -47.61783809 186.08817968 -46 189 C-45.81377075 188.15804077 -45.81377075 188.15804077 -45.6237793 187.29907227 C-40.1387458 162.52017149 -34.58940166 137.75555269 -29 113 C-28.7969928 112.10013367 -28.5939856 111.20026733 -28.38482666 110.27313232 C-10.37087138 30.46753603 -10.37087138 30.46753603 0 0 Z " fill="#3CDEFE" transform="translate(624,427)"/>
<path d="M0 0 C3.48212608 1.35822891 6.90006766 2.83325083 10.31176758 4.35913086 C40.34668956 17.73282583 71.28337366 25.93029185 104 29 C102.11671102 37.66277714 99.85959951 46.11173478 97.1875 54.5625 C96.47600333 56.84357566 95.7650715 59.12482758 95.0546875 61.40625 C94.70631836 62.52128906 94.35794922 63.63632812 93.99902344 64.78515625 C92.57457434 69.36901395 91.18802609 73.96376054 89.8125 78.5625 C89.59940186 79.272854 89.38630371 79.98320801 89.16674805 80.71508789 C88.0632371 84.40441929 86.9723247 88.09622938 85.90795898 91.79711914 C83.24742553 101.02103636 80.34137724 110.12212237 77.17919922 119.1857605 C75.86955084 122.94103065 74.57383328 126.70110807 73.27734375 130.4609375 C73.00936981 131.23737106 72.74139587 132.01380463 72.46530151 132.81376648 C69.41532965 141.66777229 66.4534557 150.5509212 63.5 159.4375 C63.2508786 160.18681793 63.0017572 160.93613586 62.74508667 161.7081604 C60.79425263 167.57733563 58.84684078 173.44764555 56.89916992 179.31787109 C54.74134561 185.80851504 52.54858248 192.28589738 50.3125 198.75 C49.94656738 199.80856201 49.58063477 200.86712402 49.20361328 201.95776367 C46.46133433 209.85978584 43.67704027 217.74649721 40.87890625 225.62890625 C40.51124649 226.66496002 40.14358673 227.70101379 39.76478577 228.76846313 C37.91442873 233.9812 36.06137609 239.19295714 34.2043457 244.40332031 C30.487761 254.85098721 26.83593699 265.31135954 23.41415405 275.85993958 C21.76193521 280.90558736 19.91161306 285.83052973 17.91116333 290.74845886 C16.82740397 293.4264955 15.82647153 296.12823819 14.8515625 298.84765625 C14.48925537 299.85602539 14.12694824 300.86439453 13.75366211 301.90332031 C13.38120361 302.94584961 13.00874512 303.98837891 12.625 305.0625 C12.22998291 306.16303711 11.83496582 307.26357422 11.42797852 308.39746094 C9.47688584 313.8406316 7.54327051 319.28937718 5.63671875 324.74829102 C3.24768046 331.58758044 0.72953399 338.36470681 -1.875 345.125 C-4.72071208 352.51787901 -7.41861624 359.94826114 -10 367.4375 C-15.77458482 384.18533735 -21.90200458 400.78278217 -28.21875 417.33325195 C-33.8212815 432.05371182 -39.21487462 446.85182389 -44.63037109 461.6418457 C-48.17929418 471.33269536 -51.74001694 481.0178827 -55.37573242 490.67651367 C-57.44060084 496.16489598 -59.48497792 501.66091362 -61.53125 507.15625 C-61.93405685 508.23782883 -62.33686371 509.31940765 -62.75187683 510.4337616 C-64.00139499 513.78912088 -65.25072789 517.14454909 -66.5 520.5 C-72.54482657 536.73594945 -78.59974942 552.96777242 -84.70300293 569.18185425 C-85.98005927 572.575277 -87.25599478 575.96912061 -88.53173828 579.36303711 C-89.17665622 581.07777731 -89.82216303 582.79229615 -90.46826172 584.5065918 C-94.09345478 594.12701434 -97.6743644 603.75622507 -101.03967285 613.47117615 C-102.7178559 618.29625387 -104.6233897 622.98606457 -106.625 627.68359375 C-108.28921948 631.69757767 -109.83604536 635.74916202 -111.375 639.8125 C-111.85573975 641.07549927 -111.85573975 641.07549927 -112.34619141 642.36401367 C-114.16275511 647.14048811 -115.97110685 651.91991202 -117.76464844 656.70507812 C-119.41307695 661.10199921 -121.07289225 665.49450878 -122.73809814 669.88510132 C-123.41062962 671.66455738 -124.07923643 673.44550188 -124.74383545 675.22793579 C-125.68901035 677.76133186 -126.64772657 680.28922545 -127.609375 682.81640625 C-128.0325148 683.96517242 -128.0325148 683.96517242 -128.46420288 685.137146 C-130.02567758 689.19607495 -131.40859882 692.31175399 -135 695 C-138.125 694.9375 -138.125 694.9375 -141 694 C-145.5597735 687.16033976 -141.516506 675.47502731 -140.03125 667.73828125 C-139.8353125 666.69056046 -139.639375 665.64283966 -139.4375 664.56336975 C-138.79713577 661.1453598 -138.14855947 657.72896348 -137.5 654.3125 C-137.04556898 651.89481703 -136.59180362 649.47700885 -136.13867188 647.05908203 C-135.44224084 643.34336993 -134.7453714 639.62774631 -134.04626465 635.91253662 C-132.57135848 628.07192718 -131.11761235 620.2278062 -129.6875 612.37890625 C-129.50556091 611.3804216 -129.32362183 610.38193695 -129.13616943 609.35319519 C-128.77252223 607.35701863 -128.40889498 605.36083844 -128.04528809 603.36465454 C-123.44130089 578.12234396 -118.60964945 552.9255872 -113.7244873 527.73638916 C-112.95543479 523.77016439 -112.1871092 519.80379929 -111.41894531 515.83740234 C-108.10173509 498.71044697 -104.77822397 481.58472236 -101.44970703 464.45996094 C-100.38616524 458.98811425 -99.32387538 453.51602636 -98.2624054 448.04377747 C-94.34434744 427.85090548 -90.34016544 407.67658225 -86.2862854 387.51052856 C-83.60154615 374.14767338 -80.99114778 360.77521369 -78.5 347.375 C-75.49254409 331.21009318 -72.15118995 315.12080249 -68.76831055 299.03076172 C-66.21276023 286.8686178 -63.7200065 274.69673536 -61.30819702 262.50527954 C-58.64687503 249.05481435 -55.88761933 235.63748749 -52.91845703 222.25097656 C-50.98803974 213.54537002 -49.10281085 204.83102569 -47.24609375 196.109375 C-41.57937589 169.49796438 -35.80656886 142.91954787 -29.69989014 116.40542603 C-28.44585962 110.95757667 -27.21044284 105.5058614 -25.98828125 100.05078125 C-10.35950583 30.4341463 -10.35950583 30.4341463 0 0 Z " fill="#333434" transform="translate(624,427)"/>
<path d="M0 0 C1.93165674 0.46359762 3.86333364 0.92711694 5.7956543 1.38793945 C12.11536363 2.91412516 18.34186361 4.67602363 24.5625 6.5625 C31.14860129 8.55926604 37.67732551 9.98759156 44.4453125 11.25390625 C49.00748028 12.21146015 53.37163034 13.60015201 57.80859375 15.015625 C66.56062648 17.7151504 74.82231913 19.6002614 84 19 C84.69738281 18.99226562 85.39476562 18.98453125 86.11328125 18.9765625 C92.05495839 18.67659433 95.96691775 16.15398835 100 12 C103.00199523 7.67560687 105.24036559 2.9589697 107 -2 C108.57710542 1.15421084 107.30979971 4.17839219 106.59375 7.49609375 C106.35017761 8.66580467 106.35017761 8.66580467 106.10168457 9.85914612 C105.57413118 12.38664192 105.0374743 14.91209712 104.5 17.4375 C103.82028534 20.66481448 103.14429883 23.89290497 102.46875 27.12109375 C102.2841069 28.00142776 102.09946381 28.88176178 101.90922546 29.78877258 C96.26815158 56.78915959 91.02936027 83.87664922 85.6875 110.9375 C85.52733524 111.74863628 85.36717049 112.55977257 85.20215225 113.39548874 C80.81620664 135.60868878 76.45865078 157.8269034 72.1875 180.0625 C71.98281097 181.12773895 71.77812195 182.19297791 71.56723022 183.29049683 C68.71446056 198.13235809 68.71446056 198.13235809 66 213 C61.0967598 211.87896004 57.01955207 209.59634178 52.6875 207.0625 C43.4678138 202.48757995 32.47253801 201.15232445 22.375 199.6875 C13.5716173 198.40349763 4.92078503 196.52819175 -3.75 194.5625 C-5.0282666 194.2739917 -6.3065332 193.9854834 -7.62353516 193.68823242 C-15.40277704 191.9026769 -23.1192071 189.94703049 -30.8215332 187.85961914 C-35.74808059 186.52723007 -40.69408591 185.30040196 -45.66796875 184.15625 C-50.22581474 183.01429802 -54.5188482 181.37054356 -58.875 179.625 C-60.0503833 179.16081665 -60.0503833 179.16081665 -61.24951172 178.68725586 C-63.50169852 177.79649338 -65.75117788 176.8992168 -68 176 C-69.67835938 175.33291016 -69.67835938 175.33291016 -71.390625 174.65234375 C-73.5958882 173.77338884 -75.79927543 172.89024285 -78 172 C-78 171.34 -78 170.68 -78 170 C-78.556875 169.8865625 -79.11375 169.773125 -79.6875 169.65625 C-91.17364301 166.39666888 -101.83195424 157.38124108 -110 149 C-111.00353516 148.04867187 -111.00353516 148.04867187 -112.02734375 147.078125 C-116.7710871 142.53810069 -120.83170497 137.78453865 -124 132 C-124 131.34 -124 130.68 -124 130 C-124.66 130 -125.32 130 -126 130 C-136.03811611 111.6182361 -142.94925297 89.63454004 -137.37841797 68.65966797 C-133.38500977 55.38500977 -133.38500977 55.38500977 -130 52 C-129.29289322 50.35008418 -128.62056011 48.68437744 -128 47 C-127.34 47 -126.68 47 -126 47 C-125.7525 46.12085938 -125.505 45.24171875 -125.25 44.3359375 C-121.76163572 35.02636532 -113.15587498 27.38071903 -105 22 C-104.34 22 -103.68 22 -103 22 C-103 21.34 -103 20.68 -103 20 C-101.3203125 18.7109375 -101.3203125 18.7109375 -99.125 17.375 C-98.40570313 16.92898438 -97.68640625 16.48296875 -96.9453125 16.0234375 C-95 15 -95 15 -93 15 C-93 14.34 -93 13.68 -93 13 C-91.35 12.67 -89.7 12.34 -88 12 C-88 11.34 -88 10.68 -88 10 C-81.375 7 -81.375 7 -78 7 C-78 6.34 -78 5.68 -78 5 C-53.72219914 -3.4972303 -25.07971789 -6.86392279 0 0 Z " fill="#FEFEFE" transform="translate(449,723)"/>
<path d="M0 0 C1.78577089 2.81963824 1.72062947 4.60958202 1.1875 7.875 C-2.66042794 11.53053155 -7.12175537 13.70502458 -11.8125 16.0625 C-39.94524125 30.60912679 -60.84241258 51.64395124 -72.0625 81.375 C-78.14915031 101.06869524 -78.9185695 122.1594166 -79.28930664 142.60522461 C-79.75653767 167.34049136 -86.89033776 187.83246127 -104.72167969 205.38305664 C-110.20680269 210.51998111 -116.19787413 214.30168334 -122.8125 217.875 C-123.50601563 218.28105469 -124.19953125 218.68710938 -124.9140625 219.10546875 C-133.523859 223.88665361 -143.99778551 226.4888473 -153.8125 226.875 C-154.84632813 226.9265625 -155.88015625 226.978125 -156.9453125 227.03125 C-170.44189781 227.39357444 -182.66908495 224.72866278 -194.8125 218.875 C-195.72515625 218.45605469 -196.6378125 218.03710938 -197.578125 217.60546875 C-205.5330855 213.66208119 -211.59656988 208.08221212 -217.8125 201.875 C-218.55628906 201.1428125 -219.30007813 200.410625 -220.06640625 199.65625 C-233.8547425 185.19333762 -239.98728451 166.35836369 -240 146.6875 C-240.01836914 145.22086914 -240.01836914 145.22086914 -240.03710938 143.72460938 C-240.08282025 120.67109381 -229.48266575 103.06925156 -213.8125 86.875 C-213.30106445 86.3402002 -212.78962891 85.80540039 -212.26269531 85.25439453 C-201.43200336 74.13222503 -188.37289317 65.32392413 -174.8125 57.875 C-173.99604004 57.42302246 -173.17958008 56.97104492 -172.33837891 56.50537109 C-143.72339788 40.78890893 -112.80105336 28.57809899 -81.3203125 19.875 C-78.81126465 19.15972578 -76.38649746 18.39699939 -73.92578125 17.546875 C-66.67004502 15.09863927 -59.25539439 13.1573754 -51.875 11.125 C-50.27204688 10.68248035 -48.66910098 10.23993453 -47.06616211 9.79736328 C-43.8480022 8.90959922 -40.62927687 8.02392213 -37.41015625 7.13964844 C-34.49764132 6.33937512 -31.58608401 5.53581974 -28.67578125 4.72753906 C-25.07718794 3.72884688 -21.47651664 2.73808902 -17.875 1.75 C-16.81740479 1.45512695 -15.75980957 1.16025391 -14.67016602 0.85644531 C-13.69748779 0.59186523 -12.72480957 0.32728516 -11.72265625 0.0546875 C-10.88871338 -0.17492676 -10.05477051 -0.40454102 -9.19555664 -0.64111328 C-5.86300097 -1.31779859 -2.9649502 -1.84031392 0 0 Z " fill="#0084D1" transform="translate(919.8125,3.125)"/>
<path d="M0 0 C3.17804526 1.54821407 6.01003921 3.3271093 8.9375 5.3125 C24.1940449 15.03223258 41.28949177 17.32509233 59 18 C59.14682158 29.10949956 57.51133107 39.86672583 55.25 50.71484375 C52.63652779 63.53548849 50.37604984 76.41799281 48.10439682 89.30279922 C47.74473506 91.34235625 47.38447503 93.38180685 47.02407837 95.42123413 C45.34135683 104.94608582 43.66835839 114.47262295 42 124 C41.79767761 125.1540332 41.59535522 126.30806641 41.38690186 127.49707031 C37.1869815 151.46978877 33.20925792 175.45275578 29.81323242 199.55395508 C29.69706573 200.3737233 29.58089905 201.19349152 29.46121216 202.0381012 C29.24606852 203.56118734 29.03347843 205.08463729 28.82394409 206.60850525 C28.41184973 209.53193542 27.93638506 212.19084483 27 215 C-7.39484208 217.63225832 -45.21931407 203.08902889 -75 187 C-72.16759906 178.25241919 -68.69009628 169.88951611 -64.9375 161.5 C-58.54688789 147.16159017 -52.72902931 132.61205742 -47 118 C-46.68123901 117.18700439 -46.36247803 116.37400879 -46.03405762 115.53637695 C-41.31238987 103.48806197 -36.61197087 91.43150035 -31.92214966 79.37075806 C-31.01637046 77.04208687 -30.10974613 74.71374646 -29.20288086 72.38549805 C-26.60804357 65.72156157 -24.01835346 59.05582295 -21.4528656 52.38052368 C-14.67509617 34.74624071 -7.78129118 17.22259115 0 0 Z " fill="#343434" transform="translate(705,222)"/>
<path d="M0 0 C0 0.66 0 1.32 0 2 C0.88042969 1.95617187 1.76085937 1.91234375 2.66796875 1.8671875 C13.97918393 2.31804485 24.76631486 11.45957302 32.46875 19.0703125 C34.07028384 21.08857198 34.59694492 22.48090578 35 25 C35.66 25 36.32 25 37 25 C44.34214429 41.03866472 47.98415711 60.50093997 41.625 77.625 C37.62638123 87.47731814 30.43412486 94.59129095 23 102 C22.505 102.5775 22.01 103.155 21.5 103.75 C19.4672515 105.44395709 17.58205543 105.65107359 15 106 C15 106.66 15 107.32 15 108 C14.01 108 13.02 108 12 108 C12 108.66 12 109.32 12 110 C9.36 110.33 6.72 110.66 4 111 C4 111.66 4 112.32 4 113 C-11.1210376 116.03927832 -25.1996033 115.32655749 -39 108.3125 C-39.69625488 107.96018311 -40.39250977 107.60786621 -41.10986328 107.24487305 C-47.37954923 103.9720412 -53.19989967 100.52519648 -56.5 94.0625 C-56.665 93.381875 -56.83 92.70125 -57 92 C-57.66 92 -58.32 92 -59 92 C-59.99 89.03 -59.99 89.03 -61 86 C-61.66 86 -62.32 86 -63 86 C-63 85.34 -63 84.68 -63 84 C-63.66 84 -64.32 84 -65 84 C-69.49592893 69.09864602 -73.54868249 50.55559351 -66 36 C-65.01 35.505 -65.01 35.505 -64 35 C-63.01575675 33.32093872 -63.01575675 33.32093872 -62.125 31.3125 C-59.04501302 24.94870337 -55.11211962 18.93684694 -50 14 C-49.34 14 -48.68 14 -48 14 C-48 13.34 -48 12.68 -48 12 C-46.02 11.34 -44.04 10.68 -42 10 C-42 9.34 -42 8.68 -42 8 C-27.66067902 1.34320574 -15.7230322 -0.33178731 0 0 Z " fill="#39DCFB" transform="translate(484,492)"/>
<path d="M0 0 C0 0.66 0 1.32 0 2 C0.81210937 2.11021484 0.81210937 2.11021484 1.640625 2.22265625 C4.93799253 3.30904059 7.08308626 5.2327102 9.75 7.4375 C10.73484375 8.24058594 11.7196875 9.04367187 12.734375 9.87109375 C13.48203125 10.57363281 14.2296875 11.27617187 15 12 C15 12.66 15 13.32 15 14 C15.598125 14.2475 16.19625 14.495 16.8125 14.75 C19.33586869 16.19192497 20.50030076 17.52549626 22 20 C22 20.99 22 21.98 22 23 C22.66 23 23.32 23 24 23 C27.11224784 28.70770176 29.44650847 33.49647456 30 40 C30.33 40.33 30.66 40.66 31 41 C31.95097244 51.4751055 31.62980857 62.08846792 28 72 C27.74863281 72.85335937 27.49726563 73.70671875 27.23828125 74.5859375 C25.40711122 80.72859252 25.40711122 80.72859252 22 83 C21.54625 83.928125 21.0925 84.85625 20.625 85.8125 C18.83926967 89.31527873 16.86932469 91.33562708 14 94 C13.113125 94.928125 12.22625 95.85625 11.3125 96.8125 C9 99 9 99 7 99 C7 99.66 7 100.32 7 101 C4.35261084 102.4606285 3.10551666 103 0 103 C0 103.66 0 104.32 0 105 C-0.99 105 -1.98 105 -3 105 C-3 105.66 -3 106.32 -3 107 C-4.32 107 -5.64 107 -7 107 C-7 107.66 -7 108.32 -7 109 C-9.8125 109.3125 -12.625 109.625 -15.4375 109.9375 C-16.22060547 110.02451172 -17.00371094 110.11152344 -17.81054688 110.20117188 C-19.40367392 110.37818599 -20.99710699 110.55246556 -22.59082031 110.72412109 C-24.20215669 110.90863772 -25.81114835 111.11487172 -27.41699219 111.34228516 C-38.41042808 112.83264891 -47.35023438 107.47421851 -56 101 C-58.85231578 98.48268775 -61.46189989 95.83141828 -64 93 C-65.2065625 91.6696875 -65.2065625 91.6696875 -66.4375 90.3125 C-68.11790203 87.82550499 -68.66146639 85.96216911 -69 83 C-69.66 83 -70.32 83 -71 83 C-71 82.01 -71 81.02 -71 80 C-71.66 80 -72.32 80 -73 80 C-73.33 77.69 -73.66 75.38 -74 73 C-74.66 73 -75.32 73 -76 73 C-79.72426918 57.81473579 -81.43076457 39.9990486 -73.15234375 25.78515625 C-72.77207031 25.19605469 -72.39179688 24.60695313 -72 24 C-71.56816406 23.27683594 -71.13632812 22.55367188 -70.69140625 21.80859375 C-65.49020867 13.47822039 -57.51052137 3.5388505 -47.5625 1.1875 C-46.716875 1.125625 -45.87125 1.06375 -45 1 C-45 0.34 -45 -0.32 -45 -1 C-29.40053378 -5.41941033 -15.33630948 -4.66757245 0 0 Z " fill="#FBFCFC" transform="translate(343,479)"/>
<path d="M0 0 C1.78577089 2.81963824 1.72062947 4.60958202 1.1875 7.875 C-2.66042794 11.53053155 -7.12175537 13.70502458 -11.8125 16.0625 C-39.96143686 30.61750106 -61.28202955 51.83004384 -72.125 81.8125 C-74.46178449 89.32136748 -75.59976151 97.12082357 -76.8125 104.875 C-77.02261719 104.276875 -77.23273438 103.67875 -77.44921875 103.0625 C-79.32618741 100.05074513 -81.41763116 99.33037822 -84.625 97.875 C-90.12334376 95.36147143 -95.14786548 92.87976695 -98 87.3125 C-99.73350946 83.88234147 -99.73350946 83.88234147 -101.8125 80.875 C-102.13068768 79.44723477 -102.39788473 78.00755211 -102.625 76.5625 C-103.92183912 70.41747769 -106.92698992 67.18035313 -112.0625 63.625 C-120.97722154 59.04429905 -130.87275223 59.51982748 -140.625 59.5625 C-141.35294769 59.5623288 -142.08089539 59.56215759 -142.8309021 59.5619812 C-153.48873225 59.57267345 -163.71905523 60.29249321 -174.20703125 62.31640625 C-177.47191028 62.82223258 -178.79943956 62.78318757 -181.8125 61.875 C-150.63643339 43.93222009 -117.85663526 31.48577779 -83.71975708 20.49075317 C-81.91954203 19.90955825 -80.12167797 19.32109574 -78.32397461 18.73217773 C-65.55931112 14.63180423 -52.60967619 11.16956939 -39.67260742 7.66186523 C-36.27064484 6.73917526 -32.87112849 5.8077809 -29.47209644 4.87436199 C-26.19777441 3.9769901 -22.92101483 3.08866575 -19.64453125 2.19921875 C-17.82270073 1.69777596 -17.82270073 1.69777596 -15.96406555 1.186203 C-14.27026009 0.72991264 -14.27026009 0.72991264 -12.54223633 0.2644043 C-11.55347 -0.00475296 -10.56470367 -0.27391022 -9.54597473 -0.55122375 C-3.07609291 -1.90929905 -3.07609291 -1.90929905 0 0 Z " fill="#419CFE" transform="translate(919.8125,3.125)"/>
<path d="M0 0 C0 0.66 0 1.32 0 2 C0.66 2.04125 1.32 2.0825 2 2.125 C6.42837175 3.41660843 9.44417405 6.1400304 13 9 C13.58652344 9.41636719 14.17304688 9.83273437 14.77734375 10.26171875 C19.07093924 13.42155308 20.01362821 15.96950387 21 21 C21.66 21 22.32 21 23 21 C23 21.99 23 22.98 23 24 C23.66 24 24.32 24 25 24 C27.49566165 30.74422852 28.3007947 37.11708302 28.3125 44.25 C28.32023438 45.38381104 28.32023438 45.38381104 28.328125 46.54052734 C28.26874702 51.37241024 27.52286712 55.41319704 26 60 C22.60333547 58.87749905 19.20782087 57.75155808 15.8125 56.625 C14.85279297 56.30789063 13.89308594 55.99078125 12.90429688 55.6640625 C11.97294922 55.3546875 11.04160156 55.0453125 10.08203125 54.7265625 C9.22843018 54.44377441 8.3748291 54.16098633 7.49536133 53.86962891 C4.96314483 52.98715604 2.48191861 52.01453525 0 51 C0 50.01 0 49.02 0 48 C-0.66 48 -1.32 48 -2 48 C-2.0825 47.38125 -2.165 46.7625 -2.25 46.125 C-2.78615973 43.86726904 -2.78615973 43.86726904 -4.76171875 42.99609375 C-5.50035156 42.66738281 -6.23898437 42.33867188 -7 42 C-7.72316406 41.65839844 -8.44632812 41.31679688 -9.19140625 40.96484375 C-18.61326203 36.88255698 -27.86416913 36.80212044 -38 37 C-38 37.66 -38 38.32 -38 39 C-44.46858648 42.84475187 -49.2348786 43.54950916 -56.6875 43.3125 C-57.61111328 43.30283203 -58.53472656 43.29316406 -59.48632812 43.28320312 C-63.79968478 43.21177965 -67.77621233 42.9313801 -72 42 C-71.04806565 22.89566237 -71.04806565 22.89566237 -65.5 17.625 C-64.675 17.08875 -63.85 16.5525 -63 16 C-62.443125 15.2575 -61.88625 14.515 -61.3125 13.75 C-60.879375 13.1725 -60.44625 12.595 -60 12 C-59.34 12 -58.68 12 -58 12 C-58 11.34 -58 10.68 -58 10 C-54.83887537 7.10982891 -51.96326509 5.50981527 -48 4 C-46.4840625 3.0409375 -46.4840625 3.0409375 -44.9375 2.0625 C-32.4007964 -5.07459992 -13.21871079 -5.70885196 0 0 Z " fill="#FBFBFB" transform="translate(494,502)"/>
<path d="M0 0 C1.22460938 -0.020625 2.44921875 -0.04125 3.7109375 -0.0625 C10.30005264 -0.09102431 15.0553261 0.13609656 20.875 3.25 C21.89980469 3.57742188 22.92460937 3.90484375 23.98046875 4.2421875 C35.84218008 8.37217606 47.02251187 18.18764988 52.875 29.25 C52.875 29.91 52.875 30.57 52.875 31.25 C53.535 31.25 54.195 31.25 54.875 31.25 C55.37 34.22 55.37 34.22 55.875 37.25 C56.535 37.25 57.195 37.25 57.875 37.25 C61.18688934 54.43262802 63.61029198 69.08745395 58.875 86.25 C58.55595703 87.42369141 58.55595703 87.42369141 58.23046875 88.62109375 C57.79743042 90.16943942 57.34026925 91.71103248 56.875 93.25 C56.215 93.25 55.555 93.25 54.875 93.25 C54.7925 93.765625 54.71 94.28125 54.625 94.8125 C52.06824791 103.12194428 45.36975474 111.5831885 38.875 117.25 C38.215 117.25 37.555 117.25 36.875 117.25 C36.875 117.91 36.875 118.57 36.875 119.25 C34.895 119.91 32.915 120.57 30.875 121.25 C30.875 121.91 30.875 122.57 30.875 123.25 C13.73432108 130.20409678 13.73432108 130.20409678 4.875 130.25 C4.01519531 130.26417969 3.15539062 130.27835938 2.26953125 130.29296875 C0.13803675 130.30949196 -1.99371867 130.28437551 -4.125 130.25 C-4.455 129.26 -4.785 128.27 -5.125 127.25 C-6.85169922 127.33701172 -6.85169922 127.33701172 -8.61328125 127.42578125 C-13.29735383 127.42268673 -17.0092642 126.17938396 -21.3125 124.4375 C-22.34020508 124.04594727 -22.34020508 124.04594727 -23.38867188 123.64648438 C-27.18141698 122.16808036 -30.78519601 120.61704555 -34.125 118.25 C-34.125 117.59 -34.125 116.93 -34.125 116.25 C-35.2696875 115.8478125 -35.2696875 115.8478125 -36.4375 115.4375 C-39.01488618 114.29865495 -40.39454864 113.43583329 -42.125 111.25 C-42.125 110.59 -42.125 109.93 -42.125 109.25 C-43.115 109.25 -44.105 109.25 -45.125 109.25 C-45.393125 108.445625 -45.66125 107.64125 -45.9375 106.8125 C-46.329375 105.966875 -46.72125 105.12125 -47.125 104.25 C-48.115 103.92 -49.105 103.59 -50.125 103.25 C-50.125 102.26 -50.125 101.27 -50.125 100.25 C-50.785 100.25 -51.445 100.25 -52.125 100.25 C-53.5856285 97.60261084 -54.125 96.35551666 -54.125 93.25 C-54.785 93.25 -55.445 93.25 -56.125 93.25 C-56.125 92.26 -56.125 91.27 -56.125 90.25 C-56.785 90.25 -57.445 90.25 -58.125 90.25 C-59.16757511 86.59403663 -60.15980914 82.92714177 -61.125 79.25 C-61.44404297 78.06470703 -61.44404297 78.06470703 -61.76953125 76.85546875 C-65.64777496 60.47756184 -62.6752423 44.87234413 -54.90234375 30.078125 C-51.88139217 25.27116029 -48.11954908 21.25907472 -44.125 17.25 C-43.41601562 16.4971875 -42.70703125 15.744375 -41.9765625 14.96875 C-40.125 13.25 -40.125 13.25 -38.125 13.25 C-38.125 12.59 -38.125 11.93 -38.125 11.25 C-36.52467863 10.40930585 -34.91958829 9.57768495 -33.3125 8.75 C-32.41917969 8.2859375 -31.52585937 7.821875 -30.60546875 7.34375 C-28.125 6.25 -28.125 6.25 -25.125 6.25 C-25.125 5.59 -25.125 4.93 -25.125 4.25 C-23.805 4.25 -22.485 4.25 -21.125 4.25 C-21.125 3.59 -21.125 2.93 -21.125 2.25 C-19.990625 2.105625 -18.85625 1.96125 -17.6875 1.8125 C-6.3751768 0.02634371 -6.3751768 0.02634371 0 0 Z M-22.125 10.25 C-22.125 10.91 -22.125 11.57 -22.125 12.25 C-23.45724609 12.38535156 -23.45724609 12.38535156 -24.81640625 12.5234375 C-30.38543622 13.74638859 -33.93245782 17.55069808 -38.125 21.25 C-39.10919922 22.09111328 -39.10919922 22.09111328 -40.11328125 22.94921875 C-50.7611994 32.69997306 -55.52102503 48.04626426 -56.28125 62.1484375 C-56.36581085 69.86461462 -55.37961228 76.88493322 -53.125 84.25 C-52.465 84.25 -51.805 84.25 -51.125 84.25 C-50.795 86.56 -50.465 88.87 -50.125 91.25 C-49.465 91.25 -48.805 91.25 -48.125 91.25 C-48.125 92.24 -48.125 93.23 -48.125 94.25 C-47.465 94.25 -46.805 94.25 -46.125 94.25 C-45.89425781 95.11882812 -45.66351563 95.98765625 -45.42578125 96.8828125 C-40.8867305 108.63254748 -28.46374899 116.3014335 -17.6171875 121.4375 C-13.90688497 122.88542294 -10.91156981 123.4068251 -6.95703125 122.875 C-5.78116455 122.72526733 -5.78116455 122.72526733 -4.58154297 122.57250977 C-3.3655542 122.41286743 -3.3655542 122.41286743 -2.125 122.25 C-0.51993726 122.06799764 1.08553768 121.88959332 2.69140625 121.71484375 C3.47451172 121.62783203 4.25761719 121.54082031 5.06445312 121.45117188 C10.46972656 120.85058594 10.46972656 120.85058594 15.875 120.25 C15.875 119.59 15.875 118.93 15.875 118.25 C17.195 118.25 18.515 118.25 19.875 118.25 C19.875 117.59 19.875 116.93 19.875 116.25 C20.865 116.25 21.855 116.25 22.875 116.25 C22.875 115.59 22.875 114.93 22.875 114.25 C24.050625 114.0334375 24.050625 114.0334375 25.25 113.8125 C27.83921018 113.37201075 27.83921018 113.37201075 29.875 112.25 C29.875 111.59 29.875 110.93 29.875 110.25 C30.555625 110.085 31.23625 109.92 31.9375 109.75 C38.64354502 106.32563659 42.35944998 99.65332326 45.875 93.25 C46.37386719 92.77433594 46.87273437 92.29867187 47.38671875 91.80859375 C49.13519048 89.97751705 49.68296785 88.53087965 50.4375 86.125 C50.66566406 85.42117188 50.89382813 84.71734375 51.12890625 83.9921875 C53.18531096 76.43409269 54.17256039 69.60483639 54.0625 61.75 C54.06185547 60.84507812 54.06121094 59.94015625 54.06054688 59.0078125 C54.4099583 54.80076 54.4099583 54.80076 52.875 51.25 C52.7925 50.280625 52.71 49.31125 52.625 48.3125 C51.98771048 43.12777167 49.34273764 38.77570334 46.875 34.25 C46.215 34.25 45.555 34.25 44.875 34.25 C44.7925 33.5075 44.71 32.765 44.625 32 C43.72690201 28.70697405 42.49083926 27.39023212 39.875 25.25 C39.215 25.25 38.555 25.25 37.875 25.25 C37.64683594 24.67765625 37.41867187 24.1053125 37.18359375 23.515625 C35.52410595 20.64248195 33.53210342 19.05739479 30.9375 17 C30.06222656 16.29359375 29.18695313 15.5871875 28.28515625 14.859375 C25.94219778 12.97233893 25.94219778 12.97233893 22.875 13.25 C22.875 12.59 22.875 11.93 22.875 11.25 C21.35629302 10.764136 19.83489301 10.28668799 18.3125 9.8125 C17.46558594 9.54566406 16.61867188 9.27882813 15.74609375 9.00390625 C3.08325242 5.67883363 -9.66014338 6.71864096 -22.125 10.25 Z " fill="#11181B" transform="translate(320.125,467.75)"/>
<path d="M0 0 C0 0.66 0 1.32 0 2 C0.88042969 1.95617187 1.76085937 1.91234375 2.66796875 1.8671875 C13.97918393 2.31804485 24.76631486 11.45957302 32.46875 19.0703125 C34.07028384 21.08857198 34.59694492 22.48090578 35 25 C35.66 25 36.32 25 37 25 C44.34214429 41.03866472 47.98415711 60.50093997 41.625 77.625 C37.62638123 87.47731814 30.43412486 94.59129095 23 102 C22.505 102.5775 22.01 103.155 21.5 103.75 C19.4672515 105.44395709 17.58205543 105.65107359 15 106 C15 106.66 15 107.32 15 108 C14.01 108 13.02 108 12 108 C12 108.66 12 109.32 12 110 C9.36 110.33 6.72 110.66 4 111 C4 111.66 4 112.32 4 113 C-11.1210376 116.03927832 -25.1996033 115.32655749 -39 108.3125 C-39.69625488 107.96018311 -40.39250977 107.60786621 -41.10986328 107.24487305 C-47.37954923 103.9720412 -53.19989967 100.52519648 -56.5 94.0625 C-56.665 93.381875 -56.83 92.70125 -57 92 C-57.66 92 -58.32 92 -59 92 C-59.99 89.03 -59.99 89.03 -61 86 C-61.66 86 -62.32 86 -63 86 C-63 85.34 -63 84.68 -63 84 C-63.66 84 -64.32 84 -65 84 C-69.49592893 69.09864602 -73.54868249 50.55559351 -66 36 C-65.01 35.505 -65.01 35.505 -64 35 C-63.01575675 33.32093872 -63.01575675 33.32093872 -62.125 31.3125 C-59.04501302 24.94870337 -55.11211962 18.93684694 -50 14 C-49.34 14 -48.68 14 -48 14 C-48 13.34 -48 12.68 -48 12 C-46.02 11.34 -44.04 10.68 -42 10 C-42 9.34 -42 8.68 -42 8 C-27.66067902 1.34320574 -15.7230322 -0.33178731 0 0 Z M-39 15 C-40.65816784 15.68753301 -42.32459336 16.35561283 -44 17 C-46.28484306 18.39957197 -46.28484306 18.39957197 -48 20 C-48 20.66 -48 21.32 -48 22 C-48.556875 22.226875 -49.11375 22.45375 -49.6875 22.6875 C-55.79608343 26.15453384 -58.70350156 31.06868215 -60.84765625 37.5703125 C-63.62165353 47.65992121 -63.2794793 57.61786141 -63 68 C-62.34 68 -61.68 68 -61 68 C-60.95101563 68.61488281 -60.90203125 69.22976563 -60.8515625 69.86328125 C-60.77679688 70.67152344 -60.70203125 71.47976563 -60.625 72.3125 C-60.55539062 73.11300781 -60.48578125 73.91351562 -60.4140625 74.73828125 C-60.10435574 77.27224441 -60.10435574 77.27224441 -58 80 C-57.34 80 -56.68 80 -56 80 C-55.9071875 81.0828125 -55.9071875 81.0828125 -55.8125 82.1875 C-54.72098423 85.96582381 -52.90539899 87.34186901 -50 90 C-49.48953125 90.60972656 -48.9790625 91.21945312 -48.453125 91.84765625 C-41.8927025 99.38053076 -30.96042562 104.78531395 -21 106 C-18.06060545 106.10496541 -15.12824672 106.09454502 -12.1875 106.0625 C-11.00510742 106.05573242 -11.00510742 106.05573242 -9.79882812 106.04882812 C-7.86585239 106.03711312 -5.93291607 106.01917998 -4 106 C-4 105.34 -4 104.68 -4 104 C-1.36 104 1.28 104 4 104 C4 103.34 4 102.68 4 102 C7.465 101.505 7.465 101.505 11 101 C11 100.34 11 99.68 11 99 C11.83917969 98.86271484 11.83917969 98.86271484 12.6953125 98.72265625 C22.4319034 95.66965741 29.18720399 85.61939571 33.75 77.0625 C39.67784162 64.42533283 39.94803244 49.00643336 35.65625 35.7734375 C35.4396875 35.18820312 35.223125 34.60296875 35 34 C34.34 34 33.68 34 33 34 C33 33.01 33 32.02 33 31 C32.34 31 31.68 31 31 31 C30.68675781 29.43185547 30.68675781 29.43185547 30.3671875 27.83203125 C29.14736201 23.57550486 26.56755415 21.30862936 23.125 18.6875 C22.59519531 18.25888672 22.06539063 17.83027344 21.51953125 17.38867188 C16.31831097 13.19288485 16.31831097 13.19288485 10 12 C10 11.34 10 10.68 10 10 C-4.35408252 3.80080755 -26.87265904 4.60212332 -39 15 Z " fill="#0F191C" transform="translate(484,492)"/>
<path d="M0 0 C2.31 0 4.62 0 7 0 C7.06058594 1.28777344 7.12117188 2.57554687 7.18359375 3.90234375 C7.26798247 5.58074159 7.3526313 7.25912636 7.4375 8.9375 C7.47681641 9.78763672 7.51613281 10.63777344 7.55664062 11.51367188 C7.59853516 12.32255859 7.64042969 13.13144531 7.68359375 13.96484375 C7.73858032 15.08814087 7.73858032 15.08814087 7.79467773 16.23413086 C7.81771063 18.02461326 7.81771063 18.02461326 9 19 C9.29849 20.84846443 9.53892822 22.70637897 9.75390625 24.56640625 C9.88603516 25.69111328 10.01816406 26.81582031 10.15429688 27.97460938 C10.28900391 29.15861328 10.42371094 30.34261719 10.5625 31.5625 C10.70107422 32.75037109 10.83964844 33.93824219 10.98242188 35.16210938 C11.32547648 38.10764722 11.66448547 41.05359533 12 44 C12.79235325 40.20847648 13.58375456 36.41675484 14.375 32.625 C14.70757812 31.03365234 14.70757812 31.03365234 15.046875 29.41015625 C15.37558594 27.83427734 15.37558594 27.83427734 15.7109375 26.2265625 C15.9284668 25.18532227 16.14599609 24.14408203 16.37011719 23.07128906 C17.13639229 19.33495541 17.8549206 15.59018274 18.55712891 11.84130859 C19 10 19 10 20 9 C21.66617115 8.95936168 23.33388095 8.957279 25 9 C25.59384037 25.34160733 23.62585452 39.94123973 17 55 C19.31 54.67 21.62 54.34 24 54 C24 53.34 24 52.68 24 52 C35.52164009 48.55580866 35.52164009 48.55580866 41 49 C41 49.66 41 50.32 41 51 C34.375 54 34.375 54 31 54 C31 54.66 31 55.32 31 56 C29.04414675 57.00484204 27.08523763 58.00373805 25.125 59 C24.03445312 59.556875 22.94390625 60.11375 21.8203125 60.6875 C19 62 19 62 17 62 C17 62.66 17 63.32 17 64 C16.401875 64.0825 15.80375 64.165 15.1875 64.25 C12.39901853 65.20605079 11.72147066 66.67975694 10 69 C9.01 69 8.02 69 7 69 C7 69.66 7 70.32 7 71 C6.01 71 5.02 71 4 71 C3.505 72.98 3.505 72.98 3 75 C2.67 73.02 2.34 71.04 2 69 C1.01 69.66 0.02 70.32 -1 71 C-6.22714688 71 -8.93378428 68.77261861 -12.6796875 65.47265625 C-14 64 -14 64 -14 62 C-15.485 61.505 -15.485 61.505 -17 61 C-17 60.34 -17 59.68 -17 59 C-18.485 58.505 -18.485 58.505 -20 58 C-20.66666667 56.33333333 -21.33333333 54.66666667 -22 53 C-23.485 52.505 -23.485 52.505 -25 52 C-29 47.54285714 -29 47.54285714 -29 45 C-29.556875 44.79375 -30.11375 44.5875 -30.6875 44.375 C-33.97012371 42.42316968 -35.70673246 40.05769006 -38 37 C-38 36.34 -38 35.68 -38 35 C-38.66 35 -39.32 35 -40 35 C-41.42944945 32.64561267 -42.08661261 31.51967567 -41.625 28.75 C-41.41875 28.1725 -41.2125 27.595 -41 27 C-37.04 26.505 -37.04 26.505 -33 26 C-29 31.75 -29 31.75 -29 34 C-28.10667969 34.42345703 -28.10667969 34.42345703 -27.1953125 34.85546875 C-18.74106028 39.2631127 -13.5119564 47.52503297 -8 55 C-7.67 53.35 -7.34 51.7 -7 50 C-7.66 50 -8.32 50 -9 50 C-9 47.36 -9 44.72 -9 42 C-9.66 42 -10.32 42 -11 42 C-11 40.02 -11 38.04 -11 36 C-11.66 36 -12.32 36 -13 36 C-13.50512244 34.39743892 -14.00391627 32.79288208 -14.5 31.1875 C-14.7784375 30.29417969 -15.056875 29.40085937 -15.34375 28.48046875 C-16 26 -16 26 -16 23 C-16.66 23 -17.32 23 -18 23 C-18 21.68 -18 20.36 -18 19 C-18.66 19 -19.32 19 -20 19 C-19.125 14.125 -19.125 14.125 -18 13 C-16.33382885 12.95936168 -14.66611905 12.957279 -13 13 C-12.67 14.32 -12.34 15.64 -12 17 C-11.34 17 -10.68 17 -10 17 C-9.60167969 18.12148438 -9.60167969 18.12148438 -9.1953125 19.265625 C-8.84210938 20.25046875 -8.48890625 21.2353125 -8.125 22.25 C-7.77695313 23.22453125 -7.42890625 24.1990625 -7.0703125 25.203125 C-6.09352019 27.93297895 -6.09352019 27.93297895 -4.8671875 30.109375 C-4 32 -4 32 -4 36 C-3.34 36 -2.68 36 -2 36 C-2 37.65 -2 39.3 -2 41 C-1.34 41 -0.68 41 0 41 C-0.03552979 39.90010742 -0.07105957 38.80021484 -0.10766602 37.66699219 C-0.23814354 33.5820311 -0.36126512 29.49687556 -0.48217773 25.41162109 C-0.53551165 23.64430686 -0.5908341 21.87705145 -0.64819336 20.10986328 C-0.730345 17.56816288 -0.80531788 15.02633597 -0.87890625 12.484375 C-0.90594131 11.69569031 -0.93297638 10.90700562 -0.96083069 10.09442139 C-1.05761846 6.52818834 -0.97167997 3.42833933 0 0 Z " fill="#45E0FE" transform="translate(157,432)"/>
<path d="M0 0 C1.343231 2.686462 0.67960047 3.69297114 -0.25 6.5 C-0.62898438 7.69109375 -0.62898438 7.69109375 -1.015625 8.90625 C-2 11 -2 11 -5 13 C-5.45375 13.928125 -5.9075 14.85625 -6.375 15.8125 C-8.16073033 19.31527873 -10.13067531 21.33562708 -13 24 C-14.3303125 25.3921875 -14.3303125 25.3921875 -15.6875 26.8125 C-18 29 -18 29 -20 29 C-20 29.66 -20 30.32 -20 31 C-22.64738916 32.4606285 -23.89448334 33 -27 33 C-27 33.66 -27 34.32 -27 35 C-27.99 35 -28.98 35 -30 35 C-30 35.66 -30 36.32 -30 37 C-31.32 37 -32.64 37 -34 37 C-34 37.66 -34 38.32 -34 39 C-36.8125 39.3125 -39.625 39.625 -42.4375 39.9375 C-43.6121582 40.06801758 -43.6121582 40.06801758 -44.81054688 40.20117188 C-46.40367392 40.37818599 -47.99710699 40.55246556 -49.59082031 40.72412109 C-51.20215669 40.90863772 -52.81114835 41.11487172 -54.41699219 41.34228516 C-65.39693817 42.83082011 -74.36927531 37.48604159 -83 31 C-85.81401367 28.45759208 -88.45345751 25.80922309 -91 23 C-90.34 22.34 -89.68 21.68 -89 21 C-87.68 21 -86.36 21 -85 21 C-85 20.34 -85 19.68 -85 19 C-83.02 19 -81.04 19 -79 19 C-79 18.34 -79 17.68 -79 17 C-78.07316406 16.79503906 -77.14632813 16.59007812 -76.19140625 16.37890625 C-74.99386719 16.10949219 -73.79632813 15.84007812 -72.5625 15.5625 C-71.36753906 15.29566406 -70.17257812 15.02882813 -68.94140625 14.75390625 C-66.1295314 14.29933252 -66.1295314 14.29933252 -65 13 C-62.32941149 12.85884839 -59.67567762 12.95752893 -57 13 C-57 12.34 -57 11.68 -57 11 C-56.21753906 10.86722656 -55.43507813 10.73445312 -54.62890625 10.59765625 C-53.61699219 10.42105469 -52.60507812 10.24445312 -51.5625 10.0625 C-50.55316406 9.88847656 -49.54382813 9.71445312 -48.50390625 9.53515625 C-46.0712562 9.25248903 -46.0712562 9.25248903 -45 8 C-41.54617875 7.45562288 -38.0823374 7.03357777 -34.61328125 6.59765625 C-31.08310797 6.1150951 -31.08310797 6.1150951 -28.15258789 5.02954102 C-25.06442231 4.0210384 -22.15208361 3.42557994 -18.9453125 2.9296875 C-17.83671875 2.75566406 -16.728125 2.58164062 -15.5859375 2.40234375 C-14.44382812 2.22832031 -13.30171875 2.05429687 -12.125 1.875 C-10.9596875 1.69324219 -9.794375 1.51148438 -8.59375 1.32421875 C-5.72984831 0.87820127 -2.86529674 0.4369498 0 0 Z " fill="#3ADCFB" transform="translate(370,549)"/>
<path d="M0 0 C2.31 0 4.62 0 7 0 C7.51012146 14.08502024 7.51012146 14.08502024 3.0625 19.25 C2.381875 19.8275 1.70125 20.405 1 21 C0.54625 21.495 0.0925 21.99 -0.375 22.5 C-7.4748494 29.05370714 -14.14230453 29.38181494 -23.4375 29.265625 C-33.62768022 28.50583086 -40.75309761 22.86487719 -48 16 C-49.35507756 14.35096381 -50.69298925 12.68738806 -52 11 C-52.556875 10.525625 -53.11375 10.05125 -53.6875 9.5625 C-55.62281124 7.25855805 -55.67477257 4.92704689 -56 2 C-53.8125 1.6875 -53.8125 1.6875 -51 2 C-49.28641357 3.61838719 -47.6292274 5.29671681 -46 7 C-38.3218023 13.33253419 -29.58494091 16.57597429 -19.5625 15.875 C-14.49942678 15.30958066 -11.18221665 13.35262626 -7.83203125 9.51953125 C-7.16558594 8.62621094 -6.49914062 7.73289062 -5.8125 6.8125 C-4.58644605 5.17385429 -3.32536013 3.55941931 -2 2 C-1.34 2 -0.68 2 0 2 C0 1.34 0 0.68 0 0 Z " fill="#051216" transform="translate(412,631)"/>
<path d="M0 0 C0.99 0 1.98 0 3 0 C3.81767416 9.03908685 4.15728141 18.04537836 4.33129883 27.11550903 C4.55668513 38.12402453 4.93619375 48.8611722 7.28125 59.66015625 C8.09427564 63.43807431 8.56276869 67.16161356 9 71 C9.66 71 10.32 71 11 71 C11.50692692 72.5811292 12.00526443 74.16501383 12.5 75.75 C12.7784375 76.63171875 13.056875 77.5134375 13.34375 78.421875 C14 81 14 81 14 85 C14.66 85 15.32 85 16 85 C16.37125 86.134375 16.7425 87.26875 17.125 88.4375 C18.70153718 92.69188742 20.95972479 96.15259404 23.59765625 99.82421875 C25.08749759 102.13575531 26.05667121 104.42277158 27 107 C27.66 107 28.32 107 29 107 C29.66 108.65 30.32 110.3 31 112 C30.34 112 29.68 112 29 112 C29 112.66 29 113.32 29 114 C27.02 114.495 27.02 114.495 25 115 C7.25713586 93.94218794 7.25713586 93.94218794 8 83 C7.34 83 6.68 83 6 83 C5.81824219 82.38253906 5.63648438 81.76507812 5.44921875 81.12890625 C4.19554495 76.90498992 2.91190266 72.71489934 1.4375 68.5625 C-3.71397764 53.18898034 -3.13968959 36.75009151 -3.0625 20.75 C-3.05747327 18.92578248 -3.05291244 17.10156362 -3.04882812 15.27734375 C-3.03791939 10.85152868 -3.02071994 6.42577957 -3 2 C-2.01 2 -1.02 2 0 2 C0 1.34 0 0.68 0 0 Z " fill="#1C1E20" transform="translate(164,501)"/>
<path d="M0 0 C15.99312901 -0.38849706 31.63711157 0.5643282 44 12 C44.65009033 12.30437988 45.30018066 12.60875977 45.9699707 12.92236328 C48.32031295 14.17003744 49.3911617 15.43399546 50.98046875 17.5546875 C51.50447266 18.25207031 52.02847656 18.94945312 52.56835938 19.66796875 C53.36983398 20.76044922 53.36983398 20.76044922 54.1875 21.875 C54.73341797 22.59558594 55.27933594 23.31617188 55.84179688 24.05859375 C60.22190654 29.95301642 60.22190654 29.95301642 61 34 C61.66 34 62.32 34 63 34 C64.32630565 38.14470514 64.98384711 43.03230578 63 47 C59.93795671 46.66896829 58.39949096 46.39949096 56.1875 44.1875 C55 42 55 42 55 38 C54.34 38 53.68 38 53 38 C53 37.01 53 36.02 53 35 C52.34 35 51.68 35 51 35 C50.67 33.35 50.34 31.7 50 30 C49.34 30 48.68 30 48 30 C48 29.01 48 28.02 48 27 C47.01 26.67 46.02 26.34 45 26 C44.31651045 24.67521162 43.65208241 23.3405263 43 22 C38.57200212 17.45470417 33.67048782 13.83524391 28 11 C28 10.34 28 9.68 28 9 C21.31226546 7.36750685 14.79133513 6.4568844 7.9375 5.875 C6.97650391 5.78863281 6.01550781 5.70226562 5.02539062 5.61328125 C2.68400552 5.40360497 0.34228922 5.1992756 -2 5 C-2 5.99 -2 6.98 -2 8 C-2.99 7.67 -3.98 7.34 -5 7 C-4.67 5.35 -4.34 3.7 -4 2 C-2.68 2 -1.36 2 0 2 C0 1.34 0 0.68 0 0 Z " fill="#1D1E20" transform="translate(474,436)"/>
<path d="M0 0 C0 0.66 0 1.32 0 2 C0.66 2 1.32 2 2 2 C2.99 6.455 2.99 6.455 4 11 C-0.53634231 9.84367745 -4.03777993 8.44238342 -8 6 C-23.96925004 -2.67353892 -38.97420613 -5.34253131 -57 -2 C-57.33 -1.67 -57.66 -1.34 -58 -1 C-60.33297433 -0.95907063 -62.66705225 -0.95758277 -65 -1 C-65 -0.34 -65 0.32 -65 1 C-67.31 1.33 -69.62 1.66 -72 2 C-72 0.68 -72 -0.64 -72 -2 C-70.5437455 -2.67119549 -69.08492133 -3.33681807 -67.625 -4 C-66.81289063 -4.37125 -66.00078125 -4.7425 -65.1640625 -5.125 C-63 -6 -63 -6 -61 -6 C-61 -6.66 -61 -7.32 -61 -8 C-59.02 -8 -57.04 -8 -55 -8 C-55 -8.66 -55 -9.32 -55 -10 C-34.63223208 -12.96780637 -17.37854965 -11.58569977 0 0 Z " fill="#191A1C" transform="translate(362,424)"/>
<path d="M0 0 C1.68359375 1.95703125 1.68359375 1.95703125 1.68359375 3.95703125 C2.34359375 3.95703125 3.00359375 3.95703125 3.68359375 3.95703125 C3.35359375 6.92703125 3.02359375 9.89703125 2.68359375 12.95703125 C1.03359375 13.28703125 -0.61640625 13.61703125 -2.31640625 13.95703125 C-5.31640625 10.20703125 -5.31640625 10.20703125 -5.31640625 7.95703125 C-6.05890625 7.68890625 -6.80140625 7.42078125 -7.56640625 7.14453125 C-10.31640625 5.95703125 -10.31640625 5.95703125 -12.06640625 4.45703125 C-19.80992931 -0.70531746 -29.55954243 1.10326587 -38.31640625 1.95703125 C-38.31640625 3.27703125 -38.31640625 4.59703125 -38.31640625 5.95703125 C-39.63640625 5.62703125 -40.95640625 5.29703125 -42.31640625 4.95703125 C-42.64640625 3.30703125 -42.97640625 1.65703125 -43.31640625 -0.04296875 C-42.65640625 -0.04296875 -41.99640625 -0.04296875 -41.31640625 -0.04296875 C-40.98640625 -1.03296875 -40.65640625 -2.02296875 -40.31640625 -3.04296875 C-37.31640625 -5.04296875 -37.31640625 -5.04296875 -34.31640625 -5.04296875 C-34.31640625 -5.70296875 -34.31640625 -6.36296875 -34.31640625 -7.04296875 C-22.12625564 -8.76175354 -9.74294566 -8.59285089 0 0 Z " fill="#0E1518" transform="translate(490.31640625,546.04296875)"/>
<path d="M0 0 C1.32 0.33 2.64 0.66 4 1 C2.85007843 7.7596741 -2.62428913 13.17377328 -7.87109375 17.20703125 C-15.22161405 22 -15.22161405 22 -19 22 C-19 22.66 -19 23.32 -19 24 C-22.32890198 24.69799558 -25.65990118 25.35842106 -29 26 C-29.64888184 26.12842285 -30.29776367 26.2568457 -30.96630859 26.38916016 C-42.09485991 28.56228241 -52.66853739 29.38727784 -64 29 C-65.4606285 26.35261084 -66 25.10551666 -66 22 C-65.34104736 22.01047363 -64.68209473 22.02094727 -64.00317383 22.03173828 C-47.66347005 22.38264934 -47.66347005 22.38264934 -31.48828125 20.4375 C-28.9417395 19.98975639 -26.57999527 19.92562176 -24 20 C-24 19.34 -24 18.68 -24 18 C-21.69 17.67 -19.38 17.34 -17 17 C-17 16.34 -17 15.68 -17 15 C-15.51333544 14.08766058 -13.98309443 13.24600021 -12.4375 12.4375 C-6.85944313 9.23983724 -3.54838225 5.28732455 0 0 Z " fill="#191C1E" transform="translate(207,1038)"/>
<path d="M0 0 C0.1953125 6.0546875 0.1953125 6.0546875 0 8 C-0.66 8.66 -1.32 9.32 -2 10 C-4.92557107 9.65581517 -7.56474903 8.82220864 -10.375 7.9375 C-16.72331859 6.28301542 -23.48890673 6.84739625 -30 7 C-30 7.66 -30 8.32 -30 9 C-31.0725 9.45375 -32.145 9.9075 -33.25 10.375 C-35.88062317 11.50088537 -38.46000396 12.67920206 -41 14 C-41.69921875 12.2578125 -41.69921875 12.2578125 -42 10 C-40.70703125 7.9296875 -40.70703125 7.9296875 -38.8125 5.875 C-38.20019531 5.19179688 -37.58789062 4.50859375 -36.95703125 3.8046875 C-33.55077754 0.66359127 -31.69408543 0 -27 0 C-27 -0.66 -27 -1.32 -27 -2 C-8.33881579 -4.44736842 -8.33881579 -4.44736842 0 0 Z " fill="#151719" transform="translate(337,521)"/>
<path d="M0 0 C2.475 0.495 2.475 0.495 5 1 C5.34933594 2.21558594 5.69867188 3.43117188 6.05859375 4.68359375 C6.5180586 6.26827863 6.9777033 7.85291137 7.4375 9.4375 C7.78264648 10.64116211 7.78264648 10.64116211 8.13476562 11.86914062 C8.98705862 15.74053247 8.98705862 15.74053247 11 19 C11.31923492 21.0572917 11.51161352 23.11613521 11.71875 25.1875 C11.81998043 27.0167533 11.81998043 27.0167533 13 28 C14.00581962 33.36437132 14.11116338 38.55299453 14 44 C11.525 44.495 11.525 44.495 9 45 C8.91959473 44.410979 8.83918945 43.82195801 8.75634766 43.21508789 C8.38307525 40.49701515 8.00406921 37.77977012 7.625 35.0625 C7.43550781 33.67321289 7.43550781 33.67321289 7.2421875 32.25585938 C6.51337511 27.06307109 5.62707291 21.97647785 4.39257812 16.87890625 C3.9078825 14.55911921 3.84766107 12.36125346 4 10 C3.34 10 2.68 10 2 10 C1.34 6.7 0.68 3.4 0 0 Z " fill="#191E20" transform="translate(379,1111)"/>
<path d="M0 0 C2.475 0.495 2.475 0.495 5 1 C5.70005949 3.07914664 6.38462244 5.16351586 7.0625 7.25 C7.44535156 8.41015625 7.82820313 9.5703125 8.22265625 10.765625 C8.95211763 13.80077085 9.11889082 15.15703213 8 18 C7.34 16.02 6.68 14.04 6 12 C5.01 13.485 5.01 13.485 4 15 C4 13.35 4 11.7 4 10 C3.34 10 2.68 10 2 10 C1.34 6.7 0.68 3.4 0 0 Z " fill="#2F373A" transform="translate(379,1111)"/>
<path d="M0 0 C0 0.66 0 1.32 0 2 C-6.625 5 -6.625 5 -10 5 C-10 5.66 -10 6.32 -10 7 C-11.32 7.33 -12.64 7.66 -14 8 C-14 7.01 -14 6.02 -14 5 C-14.99 4.34 -15.98 3.68 -17 3 C-5.47835991 -0.44419134 -5.47835991 -0.44419134 0 0 Z " fill="#4AE1FE" transform="translate(198,481)"/>
<path d="M0 0 C0.66 0.33 1.32 0.66 2 1 C-0.11905463 3.17277714 -2.24472878 5.33826908 -4.375 7.5 C-4.97828125 8.12003906 -5.5815625 8.74007813 -6.203125 9.37890625 C-6.78320312 9.96542969 -7.36328125 10.55195313 -7.9609375 11.15625 C-8.49509277 11.70087891 -9.02924805 12.24550781 -9.57958984 12.80664062 C-11 14 -11 14 -13 14 C-11.54238919 10.63163511 -9.6759774 8.43494248 -7.0625 5.875 C-6.37285156 5.19179688 -5.68320312 4.50859375 -4.97265625 3.8046875 C-3 2 -3 2 0 0 Z " fill="#CCCCCD" transform="translate(288,484)"/>
<path d="M0 0 C0.66 0.33 1.32 0.66 2 1 C1.01 1.33 0.02 1.66 -1 2 C-2.1500831 3.96672915 -2.1500831 3.96672915 -3 6 C-4.93270582 7.93270582 -8.38641388 7.62663055 -11 8 C-11.33 8.33 -11.66 8.66 -12 9 C-13.99958364 9.04080783 -16.00045254 9.04254356 -18 9 C-18 8.67 -18 8.34 -18 8 C-16.35 8 -14.7 8 -13 8 C-13 7.34 -13 6.68 -13 6 C-10.36 5.67 -7.72 5.34 -5 5 C-5 4.34 -5 3.68 -5 3 C-4.01 3 -3.02 3 -2 3 C-2 2.34 -2 1.68 -2 1 C-1.34 0.67 -0.68 0.34 0 0 Z " fill="#13B2CD" transform="translate(501,597)"/>
<path d="M0 0 C1.32 0.33 2.64 0.66 4 1 C3.67 2.32 3.34 3.64 3 5 C2.443125 5.12375 1.88625 5.2475 1.3125 5.375 C-1.22114364 6.05976855 -3.57921032 6.99133763 -6 8 C-4.02 5.36 -2.04 2.72 0 0 Z " fill="#313739" transform="translate(207,1038)"/>
<path d="M0 0 C0.66796875 1.76953125 0.66796875 1.76953125 1 4 C-0.07421875 5.88671875 -0.07421875 5.88671875 -1.6875 7.6875 C-2.20699219 8.28949219 -2.72648437 8.89148438 -3.26171875 9.51171875 C-5.18015576 11.15424572 -6.53373097 11.59701487 -9 12 C-6 8 -3 4 0 0 Z " fill="#13B7D3" transform="translate(369,572)"/>
<path d="M0 0 C0 3 0 3 -1.35546875 4.68359375 C-1.96003906 5.26238281 -2.56460937 5.84117187 -3.1875 6.4375 C-4.13882812 7.35015625 -4.13882812 7.35015625 -5.109375 8.28125 C-7.32686179 10.29714708 -9.61127784 12.190362 -12 14 C-11.52591957 9.73327616 -9.11692878 7.7544952 -6 5 C-3.6875 3.6875 -3.6875 3.6875 -2 3 C-2 2.34 -2 1.68 -2 1 C-1.34 0.67 -0.68 0.34 0 0 Z " fill="#BCBCBD" transform="translate(438,511)"/>
<path d="M0 0 C3.96 0.33 7.92 0.66 12 1 C12 1.66 12 2.32 12 3 C8.04 3 4.08 3 0 3 C0 2.01 0 1.02 0 0 Z " fill="#8DC3CD" transform="translate(461,546)"/>
<path d="M0 0 C0.495 0.144375 0.99 0.28875 1.5 0.4375 C4.97752922 1.21994407 8.45955123 1.58694764 12 2 C12 2.33 12 2.66 12 3 C8.7 3 5.4 3 2 3 C2 3.99 2 4.98 2 6 C1.01 5.67 0.02 5.34 -1 5 C-0.67 3.35 -0.34 1.7 0 0 Z " fill="#444547" transform="translate(470,438)"/>
<path d="M0 0 C1.55082902 3.10165805 0.57205841 5.6474487 -0.1875 8.93359375 C-1 11 -1 11 -3.625 12.5625 C-4.800625 12.7790625 -4.800625 12.7790625 -6 13 C-5.73445312 12.48050781 -5.46890625 11.96101562 -5.1953125 11.42578125 C-3.29301903 7.66979306 -1.48040295 3.94774121 0 0 Z " fill="#B2E6F0" transform="translate(556,721)"/>
<path d="M0 0 C0 4.41883455 -1.13160396 7.05498078 -4.125 10.3125 C-4.74375 10.869375 -5.3625 11.42625 -6 12 C-6.66 11.67 -7.32 11.34 -8 11 C-5.36 7.37 -2.72 3.74 0 0 Z " fill="#62E5FE" transform="translate(161,648)"/>
<path d="M0 0 C0.33 0 0.66 0 1 0 C1 2.64 1 5.28 1 8 C1.66 8 2.32 8 3 8 C3 9.98 3 11.96 3 14 C1.35 12.35 -0.3 10.7 -2 9 C-1.34 8.67 -0.68 8.34 0 8 C0 5.36 0 2.72 0 0 Z " fill="#DEF9FE" transform="translate(147,474)"/>
<path d="M0 0 C2.0625 0.4375 2.0625 0.4375 4 1 C3.01 1.66 2.02 2.32 1 3 C1.66 3.33 2.32 3.66 3 4 C3 4.66 3 5.32 3 6 C2.34 6 1.68 6 1 6 C0.67 6.66 0.34 7.32 0 8 C0 7.34 0 6.68 0 6 C-0.66 6 -1.32 6 -2 6 C-1.125 1.125 -1.125 1.125 0 0 Z " fill="#6FE7FE" transform="translate(100,1046)"/>
<path d="M0 0 C0.99 0 1.98 0 3 0 C3 3.96 3 7.92 3 12 C2.67 12 2.34 12 2 12 C1.67 9.03 1.34 6.06 1 3 C0.01 2.67 -0.98 2.34 -2 2 C-1.34 2 -0.68 2 0 2 C0 1.34 0 0.68 0 0 Z " fill="#233A3E" transform="translate(164,501)"/>
<path d="M0 0 C2.31 0 4.62 0 7 0 C7 0.33 7 0.66 7 1 C6.113125 1.2475 5.22625 1.495 4.3125 1.75 C0.89572865 3.03934768 -1.2797748 4.59980129 -4 7 C-4 6.01 -4 5.02 -4 4 C-2.68 3.34 -1.36 2.68 0 2 C0 1.34 0 0.68 0 0 Z " fill="#04505D" transform="translate(412,631)"/>
<path d="M0 0 C0 0.66 0 1.32 0 2 C-0.99 2.66 -1.98 3.32 -3 4 C-3.99 3.67 -4.98 3.34 -6 3 C-7.66362417 2.65179959 -9.32995171 2.31595508 -11 2 C-11 1.67 -11 1.34 -11 1 C-7.26562152 0.12132271 -3.83225427 -0.08912219 0 0 Z " fill="#6DE7FE" transform="translate(198,481)"/>
<path d="M0 0 C0.33 0.66 0.66 1.32 1 2 C-2.47325181 3.1577506 -5.36067448 3.06866652 -9 3 C-6.38997624 -0.48003168 -4.1689578 -0.27793052 0 0 Z " fill="#0A0B0D" transform="translate(481,437)"/>
<path d="M0 0 C0.66 0 1.32 0 2 0 C0.44499019 3.81684226 -2.03595495 6.19195732 -5 9 C-5.66 8.67 -6.32 8.34 -7 8 C-5.88200014 6.66079162 -4.75538103 5.32877444 -3.625 4 C-2.68527344 2.88625 -2.68527344 2.88625 -1.7265625 1.75 C-1.15679687 1.1725 -0.58703125 0.595 0 0 Z " fill="#D3F7FE" transform="translate(335,752)"/>
<path d="M0 0 C0.66 0.33 1.32 0.66 2 1 C0.38405168 3.04119788 -1.2856382 5.04072937 -3 7 C-3.66 7 -4.32 7 -5 7 C-3.70700306 4.11562221 -2.34058637 2.12780579 0 0 Z " fill="#333435" transform="translate(302,523)"/>
<path d="M0 0 C1.2065625 0.0309375 1.2065625 0.0309375 2.4375 0.0625 C1.798125 0.68125 1.15875 1.3 0.5 1.9375 C-1.60133584 3.88847612 -1.60133584 3.88847612 -2.5625 6.0625 C-3.2225 6.0625 -3.8825 6.0625 -4.5625 6.0625 C-3.48963568 0.08511307 -3.48963568 0.08511307 0 0 Z " fill="#6AE7FE" transform="translate(141.5625,444.9375)"/>
</svg>
